<svg xmlns="http://www.w3.org/2000/svg" xmlns:xlink="http://www.w3.org/1999/xlink" width="500" zoomAndPan="magnify" viewBox="0 0 375 374.999991" height="500" preserveAspectRatio="xMidYMid meet" version="1.0"><defs><clipPath id="eefb847ff3"><path d="M 25.5 58 L 349 58 L 349 315 L 25.5 315 Z M 25.5 58 " clip-rule="nonzero"/></clipPath></defs><g clip-path="url(#eefb847ff3)"><path fill="#000000" d="M 129.238281 128.320312 C 129.238281 129.410156 129.265625 130.484375 129.234375 131.550781 C 128.917969 141.894531 128.625 152.234375 128.234375 162.570312 C 128.175781 164.082031 127.804688 165.628906 127.304688 167.0625 C 126.984375 167.988281 126.160156 168.738281 125.542969 169.597656 C 123.390625 168.414062 122.949219 166.648438 122.894531 164.917969 C 122.730469 159.972656 122.59375 155.019531 122.753906 150.078125 C 122.96875 143.589844 123.476562 137.113281 123.847656 130.632812 C 123.882812 129.996094 123.855469 129.363281 123.855469 128.421875 L 99.523438 128.421875 C 99.335938 130.023438 99.074219 131.742188 98.9375 133.46875 C 97.882812 146.847656 96.839844 160.226562 95.828125 173.609375 C 95.710938 175.140625 96.046875 176.734375 95.78125 178.226562 C 95.164062 181.628906 97.207031 184.039062 98.765625 186.558594 C 99.292969 187.40625 100.761719 187.941406 101.875 188.105469 C 105.234375 188.605469 108.632812 189.09375 112.023438 189.160156 C 126.3125 189.445312 140.605469 189.710938 154.898438 189.71875 C 167.769531 189.730469 180.621094 189.058594 193.40625 187.5 C 202.105469 186.441406 210.789062 185.214844 219.457031 183.457031 C 192.292969 182.011719 165.128906 180.5625 138.523438 179.144531 C 139.578125 178.539062 139.746094 178.484375 141.566406 178.289062 C 153.289062 177.035156 165.042969 176.835938 176.816406 177.167969 C 197.921875 177.761719 219.027344 178.316406 240.136719 178.886719 C 241.667969 178.929688 243.132812 178.886719 244.378906 180.207031 C 244.898438 180.753906 246.121094 180.816406 247.019531 180.792969 C 251.742188 180.671875 256.460938 180.414062 261.183594 180.289062 C 262.257812 180.261719 263.402344 180.429688 264.394531 180.816406 C 264.976562 181.046875 265.660156 181.871094 265.683594 182.457031 C 265.707031 183.042969 265.097656 183.902344 264.53125 184.203125 C 263.695312 184.652344 262.660156 184.820312 261.695312 184.925781 C 253.9375 185.785156 246.171875 186.5625 238.417969 187.441406 C 228.261719 188.59375 218.128906 189.984375 207.953125 190.96875 C 195.59375 192.167969 183.222656 193.539062 170.824219 193.957031 C 150.707031 194.640625 130.574219 194.261719 110.527344 192.050781 C 108.242188 191.800781 105.96875 191.355469 103.710938 190.894531 C 100.582031 190.261719 97.785156 189.117188 96.921875 185.996094 C 95.101562 185.921875 93.347656 186.304688 92.0625 185.695312 C 90.167969 184.800781 89.503906 182.644531 89.480469 180.632812 C 89.414062 175.460938 89.300781 170.269531 89.683594 165.125 C 90.558594 153.386719 91.589844 141.65625 92.800781 129.949219 C 93.976562 118.574219 95.40625 107.222656 96.859375 95.878906 C 97.078125 94.167969 97.0625 92.09375 99.5 90.710938 C 100.078125 94.488281 99.875 97.953125 99.988281 101.378906 C 100.097656 104.789062 100.035156 108.207031 100.042969 111.621094 C 100.046875 115.128906 100.042969 118.632812 100.042969 122.253906 C 108.261719 122.09375 116.425781 121.933594 124.617188 121.777344 C 125.839844 117.152344 125.933594 112.472656 128.421875 108.460938 C 129.8125 112.714844 128.636719 117.09375 129.367188 121.6875 C 136.226562 122.035156 143.101562 122.382812 150.015625 122.734375 C 151.378906 119.707031 152.367188 116.484375 154.160156 113.804688 C 156.308594 110.59375 156.925781 107.316406 156.863281 103.582031 C 156.78125 98.304688 157.09375 93.019531 157.222656 87.734375 C 157.257812 86.3125 157.230469 84.882812 157.230469 83.265625 C 156.707031 83.265625 156.257812 83.144531 155.921875 83.285156 C 148.027344 86.625 139.605469 87.710938 131.242188 88.882812 C 123.734375 89.929688 116.167969 90.527344 108.617188 91.253906 C 107.214844 91.386719 105.746094 91.375 104.375 91.09375 C 103.679688 90.953125 102.746094 90.117188 102.640625 89.480469 C 102.53125 88.816406 103.109375 87.746094 103.714844 87.328125 C 104.679688 86.664062 105.878906 86.1875 107.042969 85.988281 C 112.886719 84.972656 118.730469 83.941406 124.601562 83.171875 C 131.339844 82.292969 138.105469 81.683594 144.5 81 C 144.804688 75.894531 145.09375 71.019531 145.398438 65.835938 C 133.53125 67.871094 121.488281 69.933594 109.394531 72.007812 C 109.480469 76.335938 111.433594 80.824219 108.59375 84.921875 C 106.128906 84.5625 105.640625 82.957031 105.335938 81.324219 C 104.96875 79.378906 104.84375 77.390625 104.464844 75.453125 C 104.128906 73.753906 103.671875 72.066406 103.105469 70.429688 C 102.511719 68.714844 102.710938 67.703125 104.503906 67.03125 C 106.445312 66.304688 108.488281 65.695312 110.539062 65.4375 C 120.671875 64.160156 130.824219 62.980469 140.980469 61.847656 C 143.792969 61.535156 146.636719 61.5 149.464844 61.339844 C 150.988281 61.253906 151.996094 61.949219 152.085938 63.625 C 152.183594 65.363281 152.054688 67.152344 151.726562 68.863281 C 151.007812 72.628906 150.101562 76.355469 149.253906 80.160156 L 158.5625 80.160156 C 161.976562 72.242188 168.414062 66.3125 174.378906 60.03125 C 175.019531 59.355469 176.269531 58.96875 177.246094 58.949219 C 182.394531 58.847656 187.550781 59.019531 192.695312 58.878906 C 198.300781 58.726562 203.898438 58.363281 209.496094 58.035156 C 212.054688 57.886719 213.808594 58.796875 215.1875 61.085938 C 217 64.09375 219.222656 66.847656 221.25 69.726562 C 222.203125 71.078125 223.167969 72.421875 224.011719 73.835938 C 225.195312 75.800781 225.898438 77.714844 225.730469 80.285156 C 225.433594 84.75 226.101562 89.277344 226.308594 93.785156 C 226.457031 96.972656 226.550781 100.164062 226.589844 103.355469 C 226.609375 104.867188 226.570312 106.429688 225.066406 107.550781 C 223.585938 106.34375 223.414062 104.738281 223.242188 103.097656 C 222.441406 95.511719 222.574219 87.953125 223.742188 80.898438 C 219.507812 75.375 215.4375 70.195312 211.53125 64.890625 C 210.632812 63.664062 209.707031 63.1875 208.292969 63.148438 C 205.324219 63.070312 202.359375 62.914062 199.394531 62.769531 C 192.269531 62.425781 185.148438 62.0625 177.773438 61.699219 C 173.757812 66.1875 169.433594 71 165.136719 75.835938 C 163.03125 78.207031 161.601562 80.953125 161.5625 84.160156 C 161.480469 90.304688 161.574219 96.457031 161.59375 102.605469 C 161.828125 102.726562 162.066406 102.847656 162.304688 102.96875 C 163.203125 102.28125 164.113281 101.601562 165.007812 100.90625 C 176.785156 91.683594 189.851562 89.675781 203.875 94.40625 C 216.878906 98.789062 223.539062 108.480469 223.441406 122.164062 C 223.429688 124.222656 223.261719 126.28125 223.15625 128.554688 C 240.472656 125.90625 257.605469 123.292969 275.21875 123.042969 C 276.007812 113.363281 276.78125 103.886719 277.554688 94.359375 C 268.449219 95.84375 259.550781 94.972656 250.695312 95.316406 C 244.433594 95.554688 238.160156 95.429688 231.890625 95.417969 C 230.714844 95.417969 229.535156 95.199219 228.363281 95.082031 C 228.324219 94.867188 228.292969 94.648438 228.257812 94.433594 C 229.09375 94.1875 229.917969 93.84375 230.769531 93.714844 C 243.398438 91.785156 256.089844 90.6875 268.867188 90.683594 C 270.578125 90.683594 271.941406 90.351562 273.398438 89.28125 C 281.316406 83.457031 289.535156 84.890625 295.011719 93.035156 C 296.601562 95.394531 297.828125 98.003906 299.152344 100.539062 C 300.070312 102.292969 300.84375 104.117188 301.734375 105.886719 C 304.566406 111.519531 308.914062 115.5625 314.699219 118.027344 C 318.539062 119.664062 322.496094 121.050781 326.246094 122.863281 C 329.792969 124.578125 333.375 126.386719 336.535156 128.703125 C 345.902344 135.566406 349.316406 145.246094 348.425781 156.5 C 346.398438 182.085938 326.046875 206.101562 302.230469 215.300781 C 290.714844 219.753906 278.742188 222.082031 266.480469 222.195312 C 252.308594 222.328125 238.121094 221.765625 223.941406 221.4375 C 211.292969 221.144531 198.640625 220.78125 186.066406 222.589844 C 176.210938 224.003906 166.652344 226.425781 158.332031 232.300781 C 157.480469 232.90625 156.679688 233.585938 155.398438 234.589844 C 156.417969 234.6875 156.8125 234.78125 157.199219 234.753906 C 170.578125 233.753906 183.210938 236.503906 195.199219 242.386719 C 201.191406 245.320312 206.476562 249.226562 210.789062 254.363281 C 216.992188 261.761719 218.804688 270.027344 214.769531 278.949219 C 210.679688 287.988281 203.191406 292.449219 193.453125 293.273438 C 180.441406 294.371094 163.035156 285.183594 157.359375 268.464844 C 156.121094 264.824219 155.265625 261.054688 154.109375 257.390625 C 153.316406 254.882812 152.417969 252.382812 151.339844 249.984375 C 150.019531 247.03125 147.910156 244.6875 145.125 242.8125 C 140.140625 248.105469 137.273438 254.148438 137.007812 261.253906 C 136.871094 264.875 137.210938 268.511719 137.238281 272.140625 C 137.265625 275.765625 137.375 279.40625 137.082031 283.011719 C 136.53125 289.730469 133.71875 295.625 129.070312 300.371094 C 116.761719 312.929688 101.988281 317.378906 84.800781 312.980469 C 82.023438 312.269531 82.03125 312.15625 80.429688 310.207031 C 81.675781 309.328125 82.96875 309.789062 84.179688 310.015625 C 97.042969 312.4375 108.617188 309.210938 119.101562 301.769531 C 125.195312 297.445312 129.566406 291.726562 131.148438 284.226562 C 131.507812 282.515625 131.675781 280.742188 131.703125 278.992188 C 131.757812 275.800781 131.722656 272.605469 131.585938 269.417969 C 131.269531 262.003906 131.574219 254.703125 135.121094 247.851562 C 133.476562 249.015625 132.371094 250.625 131.675781 252.367188 C 130.210938 256.035156 128.9375 259.78125 127.691406 263.527344 C 126.792969 266.234375 126.203125 269.054688 125.230469 271.734375 C 119.886719 286.382812 108.769531 294.074219 94.0625 297.179688 C 85.253906 299.039062 77.023438 297.296875 69.464844 292.402344 C 65.769531 290.011719 62.078125 287.621094 58.363281 285.273438 C 55.28125 283.320312 52.003906 281.886719 48.394531 281.101562 C 36.757812 278.574219 26.835938 290.269531 28.1875 298.980469 C 28.28125 299.609375 28.199219 300.261719 28.199219 301.550781 C 27.464844 300.691406 26.941406 300.332031 26.785156 299.855469 C 25.84375 296.972656 25.691406 294.066406 26.539062 291.09375 C 29.726562 279.871094 40.964844 273.914062 52.339844 277.738281 C 55.632812 278.847656 58.707031 280.6875 61.738281 282.4375 C 64.96875 284.308594 68.042969 286.460938 71.167969 288.511719 C 81.015625 294.980469 91.28125 294.761719 101.664062 290.160156 C 112 285.582031 119.007812 277.980469 121.820312 266.804688 C 122.625 263.605469 123.339844 260.363281 124.453125 257.269531 C 125.753906 253.671875 127.449219 250.21875 129.097656 246.414062 C 127.929688 246.914062 126.765625 247.386719 125.625 247.90625 C 115.914062 252.347656 106.054688 256.378906 95.539062 258.496094 C 89.050781 259.800781 82.519531 260.683594 75.933594 258.964844 C 64.945312 256.089844 61.648438 247.355469 68.191406 238.070312 C 73.941406 229.914062 82.21875 225.613281 91.652344 223.253906 C 98.515625 221.53125 105.410156 221.953125 112.265625 223.316406 C 119.941406 224.847656 127.386719 227.160156 134.421875 230.632812 C 137.164062 231.984375 139.757812 233.628906 142.84375 235.382812 C 142.460938 233.792969 142.242188 232.355469 141.769531 231.007812 C 139.414062 224.3125 134.84375 219.636719 128.488281 216.625 C 122.433594 213.757812 115.960938 212.660156 109.371094 211.96875 C 99.8125 210.964844 90.257812 211.410156 80.695312 211.816406 C 74.316406 212.089844 67.9375 212.136719 61.636719 210.828125 C 47.871094 207.972656 39.558594 199.414062 36.679688 185.859375 C 34.035156 173.382812 36.234375 161.359375 41.542969 149.855469 C 45.835938 140.5625 51.796875 132.410156 58.734375 124.96875 C 66.894531 116.214844 76.183594 108.863281 86.652344 103.039062 C 88.726562 101.886719 90.828125 100.730469 93.761719 100.5625 C 93.304688 101.367188 93.148438 102 92.742188 102.304688 C 91.164062 103.492188 89.542969 104.632812 87.878906 105.699219 C 73.253906 115.070312 60.542969 126.417969 51.300781 141.316406 C 44.648438 152.046875 40.734375 163.578125 41.816406 176.375 C 42.136719 180.183594 42.769531 184.046875 43.886719 187.6875 C 46.886719 197.488281 53.800781 203.273438 63.808594 204.578125 C 70.414062 205.433594 77.179688 205.148438 83.875 205.246094 C 92.007812 205.363281 100.152344 205.105469 108.273438 205.457031 C 116.488281 205.816406 124.328125 207.992188 131.527344 212.089844 C 138.433594 216.019531 143.273438 221.65625 145.058594 229.542969 C 145.578125 231.847656 145.558594 234.269531 145.820312 237.007812 C 146.257812 236.582031 146.570312 236.351562 146.789062 236.050781 C 154.183594 225.914062 164.386719 220.425781 176.457031 217.914062 C 185.230469 216.085938 194.101562 215.46875 203.019531 215.652344 C 215.660156 215.910156 228.300781 216.34375 240.9375 216.84375 C 253.253906 217.328125 265.5625 217.589844 277.824219 215.949219 C 295.660156 213.5625 311.566406 207.113281 324.125 193.722656 C 332.492188 184.804688 338.535156 174.597656 341.144531 162.539062 C 342.175781 157.777344 342.53125 152.988281 341.621094 148.128906 C 340.46875 141.96875 337.488281 136.925781 332.257812 133.554688 C 328.589844 131.191406 324.566406 129.347656 320.609375 127.460938 C 317.441406 125.953125 314.089844 124.824219 310.90625 123.34375 C 303.941406 120.113281 298.851562 114.992188 295.851562 107.867188 C 294.789062 105.332031 293.847656 102.738281 292.660156 100.257812 C 291.570312 97.988281 290.457031 95.667969 288.949219 93.671875 C 285.902344 89.644531 281.695312 88.878906 277.03125 91.152344 C 277.101562 91.34375 277.136719 91.671875 277.25 91.703125 C 280.441406 92.558594 280.929688 92.984375 281.25 96.222656 C 281.484375 98.628906 281.511719 101.0625 281.511719 103.480469 C 281.539062 115.699219 281.328125 127.929688 281.605469 140.140625 C 281.789062 148.382812 282.6875 156.605469 283.160156 164.84375 C 283.402344 169.011719 283.523438 173.199219 283.488281 177.375 C 283.464844 180.003906 282.445312 181.421875 281.042969 181.546875 C 279.632812 181.675781 278.535156 180.433594 278.191406 177.710938 C 277.457031 171.929688 276.660156 166.140625 276.324219 160.332031 C 275.714844 149.898438 275.421875 139.445312 274.992188 129.003906 C 274.976562 128.578125 274.878906 128.152344 274.816406 127.707031 C 257.449219 130.574219 240.03125 130.945312 222.421875 130.972656 C 221.882812 132.410156 221.332031 133.949219 220.71875 135.460938 C 217.445312 143.5 212.519531 150.25 205.214844 155.101562 C 191.246094 164.378906 173.183594 160.917969 161.867188 152.484375 C 156.027344 148.132812 152.117188 142.335938 150.378906 135.253906 C 149.675781 132.410156 149.589844 129.417969 149.214844 126.441406 C 142.675781 127.066406 136.144531 127.6875 129.246094 128.339844 Z M 157.453125 118.074219 C 156.6875 118.9375 155.144531 118.476562 154.65625 120.023438 C 153.5625 123.507812 152.511719 126.996094 152.914062 130.683594 C 153.652344 137.511719 156.578125 143.292969 161.601562 147.976562 C 166.414062 152.464844 172.246094 154.949219 178.585938 156.191406 C 191.128906 158.640625 201.667969 155.214844 209.503906 144.847656 C 214.945312 137.648438 217.023438 129.339844 216.941406 120.382812 C 216.863281 111.921875 212.859375 105.925781 205.519531 102.140625 C 198.113281 98.320312 190.265625 97.425781 182.152344 99.40625 C 173.246094 101.582031 166.597656 107.296875 160.351562 113.582031 C 159.773438 114.164062 159.558594 115.105469 159.175781 115.882812 C 158.601562 116.609375 158.027344 117.339844 157.453125 118.070312 Z M 150.671875 240.089844 C 155.304688 244.792969 157.398438 250.292969 158.878906 256.117188 C 159.640625 259.097656 160.308594 262.101562 161.121094 265.070312 C 164.414062 277.046875 172.476562 284.078125 184.253906 287.042969 C 190.257812 288.554688 195.988281 287.574219 201.402344 284.460938 C 210.769531 279.074219 213.421875 267.375 206.152344 258.796875 C 202.238281 254.183594 197.539062 250.652344 192.136719 248.039062 C 180.152344 242.238281 167.46875 239.613281 154.1875 239.765625 C 153.011719 239.777344 151.839844 239.980469 150.671875 240.09375 Z M 136.328125 238.898438 C 135.0625 238.203125 134.046875 237.609375 133.007812 237.082031 C 126.097656 233.609375 118.832031 231.210938 111.25 229.726562 C 105.9375 228.683594 100.628906 228.035156 95.230469 229.109375 C 86.800781 230.785156 79.320312 234.210938 73.929688 241.160156 C 69.308594 247.113281 71.007812 251.425781 78.398438 252.910156 C 83.292969 253.894531 88.226562 253.882812 93.15625 253.226562 C 101.371094 252.136719 109.191406 249.585938 116.871094 246.585938 C 123.191406 244.109375 129.488281 241.597656 136.328125 238.894531 Z M 136.328125 238.898438 " fill-opacity="1" fill-rule="nonzero"/></g><path fill="#000000" d="M 182.242188 87.25 C 188.367188 82.34375 195.203125 82.839844 201.988281 81.40625 C 202.355469 79.648438 202.769531 77.664062 203.277344 75.21875 C 196.214844 75.21875 189.546875 75.199219 182.882812 75.230469 C 181.386719 75.238281 180.777344 76.078125 180.84375 77.585938 C 180.925781 79.339844 180.898438 81.109375 180.84375 82.867188 C 180.820312 83.742188 180.683594 84.625 180.507812 85.484375 C 180.257812 86.710938 179.402344 87.609375 178.214844 87.332031 C 177.4375 87.148438 176.324219 86.167969 176.277344 85.484375 C 176.105469 83.097656 176.011719 80.613281 176.492188 78.296875 C 177.039062 75.667969 178.234375 73.171875 179.300781 70.191406 C 180.015625 71.15625 180.433594 71.714844 180.636719 71.988281 C 187.824219 71.730469 194.828125 71.472656 201.828125 71.238281 C 202.707031 71.210938 203.601562 71.191406 204.460938 71.328125 C 206.34375 71.621094 207.324219 72.484375 207.316406 74.367188 C 207.308594 77.328125 207.175781 80.316406 206.75 83.246094 C 206.417969 85.585938 204.621094 86.796875 202.328125 87.023438 C 197.515625 87.507812 192.699219 88.007812 187.875 88.257812 C 186.238281 88.34375 184.566406 87.695312 182.238281 87.257812 Z M 182.242188 87.25 " fill-opacity="1" fill-rule="nonzero"/><path fill="#000000" d="M 259.632812 85.230469 C 257.945312 86.757812 257.332031 89.269531 254.671875 89.582031 C 253.03125 87.394531 254.621094 85.605469 255.453125 83.847656 C 256.320312 82.007812 256.9375 79.796875 259.269531 79.171875 C 261.042969 78.703125 261.972656 79.996094 262.882812 81.878906 C 264.097656 79.308594 265.0625 77.269531 266.226562 74.808594 C 264.140625 74.640625 262.449219 74.472656 260.753906 74.375 C 256.804688 74.152344 252.855469 73.960938 248.90625 73.757812 C 247.195312 73.671875 246.296875 74.515625 245.949219 76.167969 C 245.515625 78.207031 245.085938 80.261719 244.449219 82.242188 C 243.851562 84.09375 242.726562 84.785156 241.308594 84.472656 C 239.753906 84.132812 239.238281 82.953125 239.148438 81.539062 C 238.992188 79.042969 238.886719 76.542969 238.757812 74.027344 C 239.921875 74.203125 241.113281 74.96875 242.335938 76.324219 C 243.488281 70.988281 247.523438 70.621094 251.769531 70.589844 C 256.605469 70.554688 261.441406 70.484375 266.277344 70.445312 C 267.15625 70.441406 268.050781 70.414062 268.910156 70.550781 C 271.035156 70.886719 272.125 72.152344 271.601562 74.261719 C 270.496094 78.679688 268.363281 82.65625 265.582031 86.253906 C 264.753906 87.320312 263.589844 87.570312 262.34375 86.832031 C 261.511719 86.335938 260.679688 85.847656 259.632812 85.230469 Z M 259.632812 85.230469 " fill-opacity="1" fill-rule="nonzero"/><path fill="#000000" d="M 156.9375 169.785156 C 161.875 167.613281 212.09375 168.988281 216.695312 170.914062 C 215.9375 172.015625 214.769531 171.953125 213.789062 171.980469 C 208.40625 172.117188 203.011719 172.394531 197.640625 172.179688 C 185.453125 171.703125 173.269531 170.976562 161.082031 170.320312 C 159.695312 170.246094 158.320312 169.96875 156.9375 169.785156 Z M 156.9375 169.785156 " fill-opacity="1" fill-rule="nonzero"/><path fill="#000000" d="M 146.96875 90.589844 C 142.515625 93.308594 118.089844 95.1875 112.460938 93.214844 C 113.433594 92.800781 113.996094 92.398438 114.597656 92.335938 C 118.746094 91.890625 122.90625 91.507812 127.0625 91.128906 C 131.988281 90.679688 136.914062 90.222656 141.84375 89.835938 C 143.449219 89.707031 145.117188 89.488281 146.96875 90.589844 Z M 146.96875 90.589844 " fill-opacity="1" fill-rule="nonzero"/><path fill="#000000" d="M 159.175781 115.882812 C 162.191406 114.488281 164.363281 112.128906 166.683594 109.804688 C 176.371094 100.078125 193.792969 98.703125 205.019531 106.5625 C 212.402344 111.726562 215.4375 120.242188 213.105469 129.230469 C 209.050781 144.859375 194.253906 155.035156 178.269531 153.089844 C 176.335938 152.855469 174.410156 152.238281 172.566406 151.5625 C 169.722656 150.519531 167.785156 148.457031 166.386719 145.234375 C 168.148438 146.050781 169.597656 146.5625 170.882812 147.34375 C 180.65625 153.273438 196.027344 151.046875 205.027344 139.332031 C 207.667969 135.890625 209.496094 132.058594 210.398438 127.773438 C 212.101562 119.671875 208.714844 112.210938 201.382812 108.367188 C 194.195312 104.597656 186.660156 104.304688 178.988281 106.5625 C 173.855469 108.074219 169.265625 110.628906 165.414062 114.382812 C 164.6875 115.089844 164.277344 116.152344 163.800781 117.089844 C 162.457031 119.726562 161.1875 122.398438 159.824219 125.027344 C 159.195312 126.25 158.792969 127.890625 156.976562 127.769531 C 155.859375 127.695312 155.324219 125.894531 155.820312 123.753906 C 156.261719 121.839844 156.902344 119.96875 157.457031 118.078125 C 158.03125 117.347656 158.601562 116.617188 159.175781 115.886719 Z M 159.175781 115.882812 " fill-opacity="1" fill-rule="nonzero"/><path fill="#000000" d="M 162.824219 139.339844 C 165.429688 141.238281 165.472656 141.351562 164.839844 143.761719 C 162.125 142.792969 161.636719 141.832031 162.824219 139.339844 Z M 162.824219 139.339844 " fill-opacity="1" fill-rule="nonzero"/></svg>